{
  "source": "C:\\Users\\Peter\\Desktop\\stuff\\MIUN\\quantitative_research\\video_compression\\videos\\BVI-HD\\BVI-HD_CDVL_videos\\ORIG\\Toys_1920x1080_30fps.mp4",
  "output": "C:\\Users\\Peter\\Desktop\\stuff\\MIUN\\quantitative_research\\video_compression\\compressed_videos\\BVI-HD\\h264\\1.5\\Toys_1920x1080_30fps_h264.mp4",
  "codec": "h264",
  "ok": "Input #0, mov,mp4,m4a,3gp,3g2,mj2, from 'C:\\Users\\Peter\\Desktop\\stuff\\MIUN\\quantitative_research\\video_compression\\videos\\BVI-HD\\BVI-HD_CDVL_videos\\ORIG\\Toys_1920x1080_30fps.mp4':\n  Metadata:\n    major_brand     : isom\n    minor_version   : 512\n    compatible_brands: isomiso2avc1mp41\n    encoder         : Lavf54.28.101\n  Duration: 00:00:05.00, start: 0.000000, bitrate: 270887 kb/s\n  Stream #0:0[0x1](und): Video: h264 (High 4:4:4 Predictive) (avc1 / 0x31637661), yuv420p(progressive), 1920x1080, 270883 kb/s, 30 fps, 30 tbr, 30 tbn (default)\n    Metadata:\n      handler_name    : VideoHandler\n      vendor_id       : [0][0][0][0]\n[out#0/mp4 @ 00000252fa9f9a40] Codec AVOption b:a (set bitrate (in bits/s)) has not been used for any stream. The most likely reason is either wrong type (e.g. a video option with no video streams) or that it is a private option of some decoder which was not actually used for any stream.\nStream mapping:\n  Stream #0:0 -> #0:0 (h264 (native) -> h264 (libx264))\nPress [q] to stop, [?] for help\n[libx264 @ 00000252fb570a40] using cpu capabilities: MMX2 SSE2Fast SSSE3 SSE4.2 AVX FMA3 BMI2 AVX2\n[libx264 @ 00000252fb570a40] profile High, level 5.0, 4:2:0, 8-bit\n[libx264 @ 00000252fb570a40] 264 - core 165 r3222 b35605a - H.264/MPEG-4 AVC codec - Copyleft 2003-2025 - http://www.videolan.org/x264.html - options: cabac=1 ref=5 deblock=1:0:0 analyse=0x3:0x113 me=hex subme=8 psy=1 psy_rd=1.00:0.00 mixed_ref=1 me_range=16 chroma_me=1 trellis=2 8x8dct=1 cqm=0 deadzone=21,11 fast_pskip=1 chroma_qp_offset=-2 threads=18 lookahead_threads=3 sliced_threads=0 nr=0 decimate=1 interlaced=0 bluray_compat=0 constrained_intra=0 bframes=3 b_pyramid=2 b_adapt=1 b_bias=0 direct=3 weightb=1 open_gop=0 weightp=2 keyint=250 keyint_min=25 scenecut=40 intra_refresh=0 rc_lookahead=50 rc=cbr mbtree=1 bitrate=1500 ratetol=1.0 qcomp=0.60 qpmin=0 qpmax=69 qpstep=4 vbv_maxrate=1500 vbv_bufsize=1500 nal_hrd=none filler=0 ip_ratio=1.40 aq=1:1.00\nOutput #0, mp4, to 'C:\\Users\\Peter\\Desktop\\stuff\\MIUN\\quantitative_research\\video_compression\\compressed_videos\\BVI-HD\\h264\\1.5\\Toys_1920x1080_30fps_h264.mp4':\n  Metadata:\n    major_brand     : isom\n    minor_version   : 512\n    compatible_brands: isomiso2avc1mp41\n    encoder         : Lavf62.3.100\n  Stream #0:0(und): Video: h264 (avc1 / 0x31637661), yuv420p(tv, progressive), 1920x1080, q=2-31, 1500 kb/s, 30 fps, 15360 tbn (default)\n    Metadata:\n      encoder         : Lavc62.11.100 libx264\n      handler_name    : VideoHandler\n      vendor_id       : [0][0][0][0]\n    Side data:\n      cpb: bitrate max/min/avg: 1500000/0/1500000 buffer size: 1500000 vbv_delay: N/A\nframe=    0 fps=0.0 q=0.0 size=       0KiB time=N/A bitrate=N/A speed=N/A elapsed=0:00:00.51    \nframe=    0 fps=0.0 q=0.0 size=       0KiB time=N/A bitrate=N/A speed=N/A elapsed=0:00:01.04    \nframe=    0 fps=0.0 q=0.0 size=       0KiB time=N/A bitrate=N/A speed=N/A elapsed=0:00:01.58    \nframe=   19 fps=8.7 q=43.0 size=       0KiB time=00:00:00.56 bitrate=   0.7kbits/s speed=0.26x elapsed=0:00:02.17    \nframe=   49 fps= 18 q=43.0 size=       0KiB time=00:00:01.50 bitrate=   0.3kbits/s speed=0.543x elapsed=0:00:02.76    \nframe=   83 fps= 25 q=43.0 size=     256KiB time=00:00:02.70 bitrate= 776.9kbits/s speed=0.811x elapsed=0:00:03.33    \nframe=  128 fps= 33 q=39.0 size=     512KiB time=00:00:04.20 bitrate= 998.7kbits/s speed=1.09x elapsed=0:00:03.84    \n[mp4 @ 00000252faa01400] Starting second pass: moving the moov atom to the beginning of the file\n[out#0/mp4 @ 00000252fa9f9a40] video:749KiB audio:0KiB subtitle:0KiB other streams:0KiB global headers:0KiB muxing overhead: 0.345478%\nframe=  150 fps= 37 q=-1.0 Lsize=     752KiB time=00:00:04.93 bitrate=1248.6kbits/s speed=1.21x elapsed=0:00:04.07    \n[libx264 @ 00000252fb570a40] frame I:1     Avg QP:39.85  size: 42690\n[libx264 @ 00000252fb570a40] frame P:38    Avg QP:42.06  size: 11430\n[libx264 @ 00000252fb570a40] frame B:111   Avg QP:47.74  size:  2609\n[libx264 @ 00000252fb570a40] consecutive B-frames:  0.7%  1.3%  2.0% 96.0%\n[libx264 @ 00000252fb570a40] mb I  I16..4: 28.1% 66.7%  5.2%\n[libx264 @ 00000252fb570a40] mb P  I16..4:  4.0%  3.6%  0.1%  P16..4: 38.0%  4.1%  3.0%  0.0%  0.0%    skip:47.1%\n[libx264 @ 00000252fb570a40] mb B  I16..4:  0.0%  0.0%  0.0%  B16..8: 28.5%  0.5%  0.0%  direct: 0.1%  skip:70.9%  L0:29.1% L1:70.6% BI: 0.3%\n[libx264 @ 00000252fb570a40] 8x8 transform intra:52.2% inter:90.4%\n[libx264 @ 00000252fb570a40] direct mvs  spatial:91.0% temporal:9.0%\n[libx264 @ 00000252fb570a40] coded y,uvDC,uvAC intra: 23.1% 19.8% 1.2% inter: 1.8% 1.1% 0.0%\n[libx264 @ 00000252fb570a40] i16 v,h,dc,p: 33% 29% 10% 28%\n[libx264 @ 00000252fb570a40] i8 v,h,dc,ddl,ddr,vr,hd,vl,hu:  7%  6% 20%  9% 14% 10% 15%  8% 11%\n[libx264 @ 00000252fb570a40] i4 v,h,dc,ddl,ddr,vr,hd,vl,hu:  8%  6% 10% 10% 17% 12% 15%  8% 13%\n[libx264 @ 00000252fb570a40] i8c dc,h,v,p: 90%  6%  3%  1%\n[libx264 @ 00000252fb570a40] Weighted P-Frames: Y:7.9% UV:0.0%\n[libx264 @ 00000252fb570a40] ref P L0: 77.9%  5.2% 12.8%  2.1%  1.8%  0.2%\n[libx264 @ 00000252fb570a40] ref B L0: 95.8%  3.4%  0.6%  0.2%\n[libx264 @ 00000252fb570a40] ref B L1: 98.9%  1.1%\n[libx264 @ 00000252fb570a40] kb/s:1226.53\n",
  "seconds": 4.3435962200164795,
  "probe_out": {}
}